{"title":"Dawn.of.the.Planet.of.the.Apes.2014.WEBRiP.XViD.AC3.5.1.ReLeNTLe","uid":11303059,"size":1861907033,"categoryP":"video","categoryS":"movies","magnet":"?xt=urn:btih:2f0b3343905d7b2e4ae14262953a2a9171198737&amp;dn=Dawn.of.the.Planet.of.the.Apes.2014.WEBRiP.XViD.AC3.5.1.ReLeNTLe&amp;tr=udp%3A%2F%2Ftracker.openbittorrent.com%3A80&amp;tr=udp%3A%2F%2Fopen.demonii.com%3A1337&amp;tr=udp%3A%2F%2Ftracker.coppersurfer.tk%3A6969&amp;tr=udp%3A%2F%2Fexodus.desync.com%3A6969","seeders":3,"leechers":0,"uploader":"TvTeam","files":4,"time":1414442786,"description":" &lt;a href=&quot;http://www.torrenting.com&quot; rel=&quot;nofollow&quot; target=&quot;_NEW&quot;&gt;http://www.torrenting.com&lt;/a&gt;\n\nSign up is OPEN - for time being. Come and have fun.\n\n\n------------------------------------------------------------------------P0STER\n[IMG]http://lookpic.com/O/i2/1589/F69vPa52.jpeg[/IMG]\n\niMDB: http://www.imdb.com/title/tt2103281/\n\nGeneral\nComplete name                            : Dawn.of.the.Planet.of.the.Apes.2014.WEBRiP.XViD.AC3.5.1.ReLeNTLesS.avi\nFormat                                   : AVI\nFormat/Info                              : Audio Video Interleave\nFile size                                : 1.72 GiB\nDuration                                 : 2h 10mn\nOverall bit rate                         : 1 880 Kbps\n\nVideo\nID                                       : 0\nFormat                                   : MPEG-4 Visual\nFormat profile                           : Advanced Simple@L5\nFormat settings, BVOP                    : 1\nFormat settings, QPel                    : No\nFormat settings, GMC                     : No warppoints\nFormat settings, Matrix                  : Default (H.263)\nMuxing mode                              : Packed bitstream\nCodec ID                                 : XVID\nCodec ID/Hint                            : XviD\nDuration                                 : 2h 10mn\nBit rate                                 : 1 490 Kbps\nWidth                                    : 720 pixels\nHeight                                   : 384 pixels\nDisplay aspect ratio                     : 1.85:1\nFrame rate                               : 23.976 fps\nColor space                              : YUV\nChroma subsampling                       : 4:2:0\nBit depth                                : 8 bits\nScan type                                : Progressive\nCompression mode                         : Lossy\nBits/(Pixel*Frame)                       : 0.225\nStream size                              : 1.36 GiB (79%)\nWriting library                          : XviD 1.2.1 (UTC 2008-12-04)\n\nAudio\nID                                       : 1\nFormat                                   : AC-3\nFormat/Info                              : Audio Coding 3\nMode extension                           : CM (complete main)\nFormat settings, Endianness              : Big\nCodec ID                                 : 2000\nDuration                                 : 2h 10mn\nBit rate mode                            : Constant\nBit rate                                 : 384 Kbps\nChannel(s)                               : 6 channels\nChannel positions                        : Front: L C R, Side: L R, LFE\nSampling rate                            : 48.0 KHz\nBit depth                                : 16 bits\nCompression mode                         : Lossy\nStream size                              : 358 MiB (20%)\nAlignment                                : Aligned on interleaves\nInterleave, duration                     : 64 ms (1.54 video frames)\nInterleave, preload duration             : 192 ms\nTitle                                    : Dawn.of.the.Planet.of.the.Apes.audio.5.1.English\nSource                                   : EVO Thanks \nSubs                                     : Hardcoded where needed see sample\n\nPL0T\nTen years after a pandemic disease, apes who have survived it are drawn into battle with a group of human survivors.\n\nCAST\nDirector: Matt Reeves\nWriters: Mark Bomback, Rick Jaffa, 4 more credits \nStars: Gary Oldman, Keri Russell, Andy Serkis\n\nN0TE\nBrightend, tweeked the colors, Hardcoded subs for ape parts enjoy :) \n\nSCREENS\n[IMG]http://lookpic.com/O/i2/1461/OXDvRiv.png[/IMG]\n[IMG]http://lookpic.com/O/i2/1197/aLoJEnY8.png[/IMG]\n[IMG]http://lookpic.com/O/i2/728/3NiGI98.png[/IMG]\n[IMG]http://lookpic.com/O/i2/666/hPPfO3Vu.png[/IMG]\n[IMG]http://lookpic.com/O/i2/1015/lEhUVsuB.png[/IMG]\n[IMG]http://lookpic.com/O/i2/629/5ClZVRsf.png[/IMG]\n\nTRAiLER\n\nGREETZ\n\nM0RPH, M00SE, MiLLENiUM, Anonymous, TuX, \n\nACAB, KingStoner, FooKas, 4PlayHD, \n\nGodFather, Cld.... \n\nKeep up the good work guyz","torrent":{"xt":"urn:btih:2f0b3343905d7b2e4ae14262953a2a9171198737","amp;dn":"Dawn.of.the.Planet.of.the.Apes.2014.WEBRiP.XViD.AC3.5.1.ReLeNTLe","amp;tr":["udp%3A%2F%2Ftracker.openbittorrent.com%3A80","udp%3A%2F%2Fopen.demonii.com%3A1337","udp%3A%2F%2Ftracker.coppersurfer.tk%3A6969","udp%3A%2F%2Fexodus.desync.com%3A6969"],"infoHash":"2f0b3343905d7b2e4ae14262953a2a9171198737","infoHashBuffer":{"type":"Buffer","data":[47,11,51,67,144,93,123,46,74,225,66,98,149,58,42,145,113,25,135,55]},"announce":[],"urlList":[]}}